<?xml version="1.0" encoding="utf-8"?>
<!-- Generator: Avocode 2.4.2-d618096 - http://avocode.com -->
<svg height="44" width="44" xmlns:xlink="http://www.w3.org/1999/xlink" xmlns="http://www.w3.org/2000/svg" viewBox="0 0 44 44">
    <path stroke-linejoin="miter" stroke-linecap="butt" stroke-width="2" stroke="#000000" fill="none" fill-rule="evenodd" d="M 0 2.01 C 0 0.9 0.9 0 2 0 L 42 0 C 43.1 0 44 0.9 44 2.01 L 44 13.12 C 44 14.23 43.1 15.13 42 15.13 L 2 15.13 C 0.9 15.13 0 14.22 0 13.12 L 0 2.01 Z M 0 2.01" />
    <path stroke-linejoin="miter" stroke-linecap="butt" stroke-width="2" stroke="#000000" fill="none" fill-rule="evenodd" d="M 0 15.74 C 0 14.64 0.9 13.75 2 13.75 L 42 13.75 C 43.1 13.75 44 14.64 44 15.74 L 44 28.26 C 44 29.36 43.1 30.25 42 30.25 L 2 30.25 C 0.9 30.25 0 29.36 0 28.26 L 0 15.74 Z M 0 15.74" />
    <path stroke-linejoin="miter" stroke-linecap="butt" stroke-width="2" stroke="#000000" fill="none" fill-rule="evenodd" d="M 0 30.88 C 0 29.77 0.9 28.88 2 28.88 L 42 28.88 C 43.1 28.88 44 29.78 44 30.88 L 44 41.99 C 44 43.1 43.1 44 42 44 L 2 44 C 0.9 44 0 43.1 0 41.99 L 0 30.88 Z M 0 30.88" />
</svg>