<!-- Generator: Avocode 2.1.0 - http://avocode.com -->
<svg height="18" width="30" xmlns:xlink="http://www.w3.org/1999/xlink" xmlns="http://www.w3.org/2000/svg" viewBox="0 0 30 18">
    <path fill="#ffffff" fill-rule="evenodd" d="M 3.41 9.99 L 29 9.99 C 29.55 9.99 30 9.55 30 8.99 C 30 8.44 29.55 7.99 29 7.99 L 3.41 7.99 L 9.71 1.7 C 10.1 1.31 10.1 0.68 9.71 0.29 C 9.32 -0.1 8.68 -0.1 8.29 0.29 L 0.29 8.28 C 0.2 8.38 0.13 8.49 0.08 8.61 C -0.03 8.86 -0.03 9.13 0.08 9.37 C 0.13 9.5 0.2 9.61 0.29 9.7 L 8.29 17.7 C 8.49 17.9 8.74 17.99 9 17.99 C 9.25 17.99 9.51 17.9 9.71 17.7 C 10.1 17.31 10.1 16.68 9.71 16.29 L 3.41 9.99" />
</svg>