<!-- Generator: Avocode 2.1.0 - http://avocode.com -->
<svg height="18" width="30" xmlns:xlink="http://www.w3.org/1999/xlink" xmlns="http://www.w3.org/2000/svg" viewBox="0 0 30 18">
    <path fill="#ffffff" fill-rule="evenodd" d="M 29.92 9.37 C 30.02 9.13 30.02 8.86 29.92 8.61 C 29.87 8.49 29.8 8.38 29.71 8.28 L 21.71 0.29 C 21.32 -0.1 20.68 -0.1 20.29 0.29 C 19.9 0.68 19.9 1.31 20.29 1.7 L 26.59 7.99 L 1 7.99 C 0.45 7.99 0 8.44 0 8.99 C 0 9.55 0.45 9.99 1 9.99 L 26.59 9.99 L 20.29 16.29 C 19.9 16.68 19.9 17.31 20.29 17.7 C 20.49 17.9 20.74 17.99 21 17.99 C 21.25 17.99 21.51 17.9 21.71 17.7 L 29.71 9.7 C 29.8 9.61 29.87 9.5 29.92 9.37" />
</svg>