<!-- Generator: Avocode 2.1.0 - http://avocode.com -->
<svg height="16" width="16" xmlns:xlink="http://www.w3.org/1999/xlink" xmlns="http://www.w3.org/2000/svg" viewBox="0 0 16 16">
    <path fill="#b0b0b0" fill-rule="evenodd" d="M 8 15.33 C 3.96 15.33 0.67 12.03 0.67 8 C 0.67 3.97 3.96 0.67 8 0.67 C 12.04 0.67 15.33 3.97 15.33 8 C 15.33 12.03 12.04 15.33 8 15.33 L 8 15.33 Z M 8 0 C 3.59 0 0 3.6 0 8 C 0 12.4 3.59 16 8 16 C 12.41 16 16 12.4 16 8 C 16 3.6 12.41 0 8 0 L 8 0 Z M 8 0" />
    <path fill="#b0b0b0" fill-rule="evenodd" d="M 7.84 7.87 L 7.84 4.33 C 7.84 4.17 7.69 4 7.51 4 C 7.33 4 7.18 4.17 7.18 4.33 L 7.18 8 C 7.18 8.1 7.22 8.2 7.29 8.27 L 11.21 11.93 C 11.27 11.97 11.35 12 11.43 12 C 11.52 12 11.61 11.97 11.67 11.9 C 11.79 11.77 11.78 11.53 11.65 11.43 L 7.84 7.87" />
</svg>