<!-- Generator: Avocode 2.1.0 - http://avocode.com -->
<svg height="17" width="17" xmlns:xlink="http://www.w3.org/1999/xlink" xmlns="http://www.w3.org/2000/svg" viewBox="0 0 17 17">
    <path fill="#b0b0b0" fill-rule="evenodd" d="M 8.23 12.03 L 5.37 14.89 C 4.94 15.31 4.38 15.55 3.78 15.55 C 3.18 15.55 2.61 15.31 2.19 14.89 L 1.55 14.25 C 0.68 13.38 0.68 11.95 1.55 11.08 L 5.68 6.95 C 6.11 6.52 6.67 6.29 7.27 6.29 C 7.87 6.29 8.44 6.52 8.86 6.95 L 9.5 7.58 C 9.67 7.76 9.96 7.76 10.13 7.58 C 10.31 7.41 10.31 7.12 10.13 6.95 L 9.5 6.31 C 8.9 5.72 8.11 5.39 7.27 5.39 C 6.43 5.39 5.64 5.72 5.05 6.31 L 0.92 10.44 C -0.31 11.67 -0.31 13.66 0.92 14.89 L 1.55 15.52 C 2.15 16.12 2.94 16.45 3.78 16.45 C 4.62 16.45 5.41 16.12 6 15.52 L 8.86 12.67 C 9.04 12.49 9.04 12.21 8.86 12.03 C 8.69 11.85 8.4 11.85 8.23 12.03" />
    <path fill="#b0b0b0" fill-rule="evenodd" d="M 15.45 1.56 L 14.81 0.92 C 14.22 0.33 13.43 0 12.59 0 C 11.75 0 10.96 0.33 10.36 0.92 L 7.5 3.78 C 7.33 3.96 7.33 4.24 7.5 4.42 C 7.68 4.59 7.96 4.59 8.14 4.42 L 11 1.56 C 11.42 1.13 11.99 0.9 12.59 0.9 C 13.19 0.9 13.75 1.13 14.18 1.56 L 14.81 2.19 C 15.24 2.62 15.47 3.18 15.47 3.78 C 15.47 4.38 15.24 4.94 14.81 5.37 L 10.68 9.5 C 10.26 9.92 9.69 10.16 9.09 10.16 C 8.49 10.16 7.93 9.92 7.51 9.5 C 7.33 9.32 7.05 9.32 6.87 9.5 C 6.69 9.67 6.69 9.96 6.87 10.13 C 7.46 10.73 8.25 11.05 9.09 11.05 C 9.93 11.05 10.72 10.73 11.32 10.13 L 15.45 6 C 16.04 5.41 16.37 4.62 16.37 3.78 C 16.37 2.94 16.04 2.15 15.45 1.56" />
</svg>