<!-- Generator: Avocode 2.1.0 - http://avocode.com -->
<svg height="18" width="18" xmlns:xlink="http://www.w3.org/1999/xlink" xmlns="http://www.w3.org/2000/svg" viewBox="0 0 18 18">
    <path fill="#62b7ff" fill-rule="evenodd" d="M 16.7 2.68 L 15.32 1.3 C 14.26 0.23 12.52 0.23 11.45 1.3 L 8.35 4.4 C 7.98 4.77 7.78 5.26 7.78 5.78 C 7.78 6.31 7.98 6.8 8.35 7.17 L 8.42 7.23 C 8.57 7.39 8.82 7.39 8.97 7.23 C 9.13 7.08 9.13 6.83 8.97 6.68 L 8.91 6.61 C 8.68 6.39 8.56 6.1 8.56 5.78 C 8.56 5.47 8.68 5.18 8.91 4.95 L 12.01 1.85 C 12.77 1.09 14.01 1.09 14.77 1.85 L 16.14 3.23 C 16.51 3.6 16.71 4.09 16.71 4.61 C 16.71 5.14 16.51 5.63 16.14 5.99 L 13.04 9.09 C 12.59 9.55 11.84 9.55 11.39 9.09 L 11.32 9.03 C 11.17 8.87 10.92 8.87 10.77 9.03 C 10.61 9.18 10.61 9.43 10.77 9.58 L 10.83 9.65 C 11.21 10.03 11.71 10.22 12.22 10.22 C 12.72 10.22 13.22 10.03 13.6 9.65 L 16.7 6.55 C 17.21 6.03 17.5 5.34 17.5 4.61 C 17.5 3.88 17.21 3.19 16.7 2.68" />
    <path fill="#62b7ff" fill-rule="evenodd" d="M 9.75 10.59 C 9.6 10.44 9.35 10.44 9.2 10.59 C 9.05 10.74 9.05 10.99 9.2 11.14 L 9.27 11.21 C 9.49 11.43 9.61 11.73 9.61 12.04 C 9.61 12.35 9.49 12.65 9.27 12.87 L 6.17 15.97 C 5.41 16.73 4.17 16.73 3.4 15.97 L 2.03 14.59 C 1.66 14.23 1.46 13.74 1.46 13.21 C 1.46 12.69 1.66 12.2 2.03 11.83 L 5.13 8.73 C 5.59 8.27 6.33 8.27 6.79 8.73 L 6.86 8.8 C 7.01 8.95 7.26 8.95 7.41 8.8 C 7.56 8.64 7.56 8.4 7.41 8.24 L 7.34 8.18 C 6.58 7.42 5.34 7.42 4.58 8.18 L 1.48 11.28 C 0.96 11.79 0.68 12.48 0.68 13.21 C 0.68 13.94 0.96 14.63 1.48 15.15 L 2.85 16.52 C 3.39 17.05 4.09 17.32 4.79 17.32 C 5.49 17.32 6.19 17.05 6.72 16.52 L 9.82 13.42 C 10.19 13.05 10.39 12.56 10.39 12.04 C 10.39 11.52 10.19 11.03 9.82 10.66 L 9.75 10.59" />
    <path fill="#62b7ff" fill-rule="evenodd" d="M 5.77 12.23 C 5.85 12.3 5.95 12.34 6.05 12.34 C 6.15 12.34 6.25 12.3 6.32 12.23 L 12.4 6.15 C 12.56 5.99 12.56 5.75 12.4 5.59 C 12.25 5.44 12 5.44 11.85 5.59 L 5.77 11.68 C 5.62 11.83 5.62 12.08 5.77 12.23" />
</svg>