<?xml version="1.0" encoding="utf-8"?>
<!-- Generator: Adobe Illustrator 18.1.1, SVG Export Plug-In . SVG Version: 6.00 Build 0)  -->
<svg version="1.1" id="Слой_1" xmlns="http://www.w3.org/2000/svg" xmlns:xlink="http://www.w3.org/1999/xlink" x="0px" y="0px"
	 viewBox="-277 279 44 44" enable-background="new -277 279 44 44" xml:space="preserve">
<path fill="none" stroke="#000000" stroke-width="2" d="M-277,281.01c0-1.11,0.9-2.01,2-2.01h40c1.1,0,2,0.9,2,2.01v11.11
	c0,1.11-0.9,2.01-2,2.01h-40c-1.1,0-2-0.91-2-2.01V281.01z"/>
<path fill="none" stroke="#000000" stroke-width="2" d="M-277,294.74c0-1.1,0.9-1.99,2-1.99h40c1.1,0,2,0.89,2,1.99v12.52
	c0,1.1-0.9,1.99-2,1.99h-40c-1.1,0-2-0.89-2-1.99V294.74z"/>
<path fill="none" stroke="#000000" stroke-width="2" d="M-277,309.88c0-1.11,0.9-2,2-2h40c1.1,0,2,0.9,2,2v11.11
	c0,1.11-0.9,2.01-2,2.01h-40c-1.1,0-2-0.9-2-2.01V309.88z"/>
<path fill="none" stroke="#000000" stroke-width="2" d="M-277,281c0-1.1,0.9-2,2-2h40c1.1,0,2,0.9,2,2v40c0,1.1-0.9,2-2,2h-40
	c-1.1,0-2-0.9-2-2V281z"/>
</svg>
