<?xml version="1.0" encoding="utf-8"?>
<!-- Generator: Avocode 2.4.2-d618096 - http://avocode.com -->
<svg height="44" width="44" xmlns:xlink="http://www.w3.org/1999/xlink" xmlns="http://www.w3.org/2000/svg" viewBox="0 0 44 44">
    <path fill="#1b1a19" fill-rule="evenodd" d="M 42.17 42.17 L 1.83 42.17 L 1.83 3.67 L 5.5 3.67 L 5.5 24.75 C 5.5 25.13 5.72 25.46 6.07 25.6 C 6.41 25.74 6.8 25.67 7.06 25.4 L 13.75 18.72 L 20.43 25.4 C 20.61 25.57 20.84 25.67 21.08 25.67 C 21.2 25.67 21.32 25.65 21.43 25.6 C 21.78 25.46 22 25.13 22 24.75 L 22 3.67 L 42.17 3.67 L 42.17 42.17 L 42.17 42.17 Z M 7.33 1.83 L 20.17 1.83 L 20.17 22.54 L 14.4 16.78 C 14.22 16.59 13.98 16.5 13.75 16.5 C 13.52 16.5 13.28 16.59 13.1 16.78 L 7.33 22.54 L 7.33 1.83 L 7.33 1.83 Z M 43.08 1.83 L 22 1.83 L 22 0.92 C 22 0.41 21.59 0 21.08 0 L 6.42 0 C 5.91 0 5.5 0.41 5.5 0.92 L 5.5 1.83 L 0.92 1.83 C 0.41 1.83 0 2.25 0 2.75 L 0 43.08 C 0 43.59 0.41 44 0.92 44 L 43.08 44 C 43.59 44 44 43.59 44 43.08 L 44 2.75 C 44 2.25 43.59 1.83 43.08 1.83 L 43.08 1.83 Z M 43.08 1.83" />
    <path fill="#1b1a19" fill-rule="evenodd" d="M 26.58 14.67 L 37.58 14.67 C 38.09 14.67 38.5 14.26 38.5 13.75 C 38.5 13.25 38.09 12.83 37.58 12.83 L 26.58 12.83 C 26.08 12.83 25.67 13.25 25.67 13.75 C 25.67 14.26 26.08 14.67 26.58 14.67" />
    <path fill="#1b1a19" fill-rule="evenodd" d="M 26.58 20.17 L 37.58 20.17 C 38.09 20.17 38.5 19.76 38.5 19.25 C 38.5 18.75 38.09 18.33 37.58 18.33 L 26.58 18.33 C 26.08 18.33 25.67 18.75 25.67 19.25 C 25.67 19.76 26.08 20.17 26.58 20.17" />
    <path fill="#1b1a19" fill-rule="evenodd" d="M 37.58 23.83 L 26.58 23.83 C 26.08 23.83 25.67 24.25 25.67 24.75 C 25.67 25.26 26.08 25.67 26.58 25.67 L 37.58 25.67 C 38.09 25.67 38.5 25.26 38.5 24.75 C 38.5 24.25 38.09 23.83 37.58 23.83" />
    <path fill="#1b1a19" fill-rule="evenodd" d="M 37.58 29.33 L 6.42 29.33 C 5.91 29.33 5.5 29.75 5.5 30.25 C 5.5 30.76 5.91 31.17 6.42 31.17 L 37.58 31.17 C 38.09 31.17 38.5 30.76 38.5 30.25 C 38.5 29.75 38.09 29.33 37.58 29.33" />
    <path fill="#1b1a19" fill-rule="evenodd" d="M 30.25 34.83 L 6.42 34.83 C 5.91 34.83 5.5 35.25 5.5 35.75 C 5.5 36.26 5.91 36.67 6.42 36.67 L 30.25 36.67 C 30.76 36.67 31.17 36.26 31.17 35.75 C 31.17 35.25 30.76 34.83 30.25 34.83" />
</svg>