<?xml version="1.0" encoding="utf-8"?>
<!-- Generator: Avocode 2.4.2-d618096 - http://avocode.com -->
<svg height="39" width="64" xmlns:xlink="http://www.w3.org/1999/xlink" xmlns="http://www.w3.org/2000/svg" viewBox="0 0 64 39">
    <path fill="#ffffff" fill-rule="evenodd" d="M 63.84 19.99 C 64.05 19.48 64.05 18.91 63.84 18.37 C 63.73 18.12 63.57 17.88 63.38 17.67 L 46.31 0.62 C 45.48 -0.21 44.13 -0.21 43.29 0.62 C 42.46 1.46 42.46 2.8 43.29 3.63 L 56.72 17.05 L 2.13 17.05 C 0.95 17.05 0 18.01 0 19.18 C 0 20.38 0.95 21.32 2.13 21.32 L 56.72 21.32 L 43.29 34.76 C 42.46 35.59 42.46 36.93 43.29 37.77 C 43.71 38.19 44.26 38.38 44.8 38.38 C 45.35 38.38 45.89 38.19 46.31 37.77 L 63.37 20.7 C 63.57 20.51 63.73 20.27 63.84 19.99" />
</svg>