<?xml version="1.0" encoding="utf-8"?>
<!-- Generator: Avocode 2.4.2-d618096 - http://avocode.com -->
<svg height="39" width="64" xmlns:xlink="http://www.w3.org/1999/xlink" xmlns="http://www.w3.org/2000/svg" viewBox="0 0 64 39">
    <path fill="#ffffff" fill-rule="evenodd" d="M 7.28 21.32 L 61.87 21.32 C 63.04 21.32 64 20.38 64 19.18 C 64 18.01 63.04 17.05 61.87 17.05 L 7.28 17.05 L 20.71 3.63 C 21.54 2.8 21.54 1.46 20.71 0.62 C 19.87 -0.21 18.52 -0.21 17.69 0.62 L 0.63 17.67 C 0.43 17.89 0.27 18.12 0.16 18.37 C -0.05 18.91 -0.05 19.49 0.16 20 C 0.27 20.27 0.43 20.51 0.63 20.7 L 17.69 37.77 C 18.11 38.19 18.65 38.39 19.2 38.39 C 19.74 38.39 20.29 38.19 20.71 37.77 C 21.54 36.94 21.54 35.59 20.71 34.76 L 7.28 21.32" />
</svg>