<!-- Generator: Avocode 2.1.0 - http://avocode.com -->
<svg height="17" width="17" xmlns:xlink="http://www.w3.org/1999/xlink" xmlns="http://www.w3.org/2000/svg" viewBox="0 0 17 17">
    <path fill="#62b7ff" fill-rule="evenodd" d="M 0.71 6.02 C 0.71 3.09 3.09 0.71 6.02 0.71 C 8.95 0.71 11.33 3.09 11.33 6.02 C 11.33 8.95 8.95 11.33 6.02 11.33 C 3.09 11.33 0.71 8.95 0.71 6.02 L 0.71 6.02 Z M 16.9 16.4 L 10.53 10 C 11.47 8.94 12.04 7.55 12.04 6.02 C 12.04 2.7 9.34 0 6.02 0 C 2.7 0 0 2.7 0 6.02 C 0 9.34 2.7 12.04 6.02 12.04 C 7.56 12.04 8.96 11.46 10.03 10.5 L 16.39 16.9 C 16.46 16.97 16.55 17 16.65 17 C 16.74 17 16.83 16.97 16.9 16.9 C 17.03 16.76 17.03 16.53 16.9 16.4 L 16.9 16.4 Z M 16.9 16.4" />
</svg>