<?xml version="1.0" encoding="utf-8"?>
<!-- Generator: Avocode 2.4.2-d618096 - http://avocode.com -->
<svg height="44" width="44" xmlns:xlink="http://www.w3.org/1999/xlink" xmlns="http://www.w3.org/2000/svg" viewBox="0 0 44 44">
    <path fill="#1b1a19" fill-rule="evenodd" d="M 41.76 5.69 L 38.16 2.1 C 35.37 -0.7 30.82 -0.7 28.03 2.1 L 19.92 10.21 C 18.95 11.17 18.42 12.46 18.42 13.83 C 18.42 15.19 18.95 16.48 19.92 17.44 L 20.09 17.62 C 20.49 18.02 21.14 18.02 21.54 17.62 C 21.94 17.22 21.94 16.57 21.54 16.17 L 21.36 16 C 20.78 15.42 20.47 14.65 20.47 13.83 C 20.47 13.01 20.78 12.24 21.36 11.66 L 29.48 3.54 C 31.47 1.55 34.72 1.55 36.71 3.54 L 40.31 7.14 C 41.27 8.1 41.8 9.38 41.8 10.76 C 41.8 12.13 41.27 13.41 40.31 14.37 L 32.2 22.49 C 31 23.68 29.05 23.68 27.86 22.49 L 27.68 22.31 C 27.28 21.91 26.63 21.91 26.23 22.31 C 25.83 22.71 25.83 23.36 26.23 23.76 L 26.41 23.94 C 27.4 24.93 28.72 25.43 30.03 25.43 C 31.34 25.43 32.65 24.93 33.64 23.94 L 41.76 15.82 C 43.1 14.47 43.85 12.67 43.85 10.76 C 43.85 8.84 43.1 7.04 41.76 5.69" />
    <path fill="#1b1a19" fill-rule="evenodd" d="M 23.75 26.23 C 23.36 25.83 22.71 25.83 22.31 26.23 C 21.91 26.63 21.91 27.28 22.31 27.67 L 22.48 27.85 C 23.06 28.43 23.38 29.2 23.38 30.02 C 23.38 30.84 23.06 31.61 22.48 32.19 L 14.37 40.31 C 12.37 42.3 9.13 42.3 7.13 40.31 L 3.54 36.71 C 2.58 35.75 2.05 34.46 2.05 33.09 C 2.05 31.72 2.58 30.44 3.54 29.47 L 11.65 21.36 C 12.85 20.16 14.8 20.16 15.99 21.36 L 16.17 21.54 C 16.57 21.94 17.21 21.94 17.61 21.54 C 18.01 21.14 18.01 20.49 17.62 20.09 L 17.44 19.91 C 15.45 17.92 12.2 17.92 10.2 19.91 L 2.09 28.03 C 0.74 29.38 0 31.17 0 33.09 C 0 35.01 0.74 36.81 2.09 38.16 L 5.69 41.75 C 7.08 43.15 8.92 43.85 10.75 43.85 C 12.59 43.85 14.42 43.15 15.82 41.75 L 23.93 33.64 C 24.9 32.67 25.43 31.39 25.43 30.02 C 25.43 28.66 24.9 27.37 23.93 26.4 L 23.75 26.23" />
    <path fill="#1b1a19" fill-rule="evenodd" d="M 12.58 29.94 C 12.78 30.14 13.04 30.24 13.3 30.24 C 13.56 30.24 13.83 30.14 14.03 29.94 L 29.94 14.02 C 30.34 13.63 30.34 12.98 29.94 12.58 C 29.55 12.18 28.9 12.18 28.5 12.58 L 12.58 28.5 C 12.18 28.9 12.18 29.54 12.58 29.94" />
</svg>