<!-- Generator: Avocode 2.1.0 - http://avocode.com -->
<svg height="12" width="21" xmlns:xlink="http://www.w3.org/1999/xlink" xmlns="http://www.w3.org/2000/svg" viewBox="0 0 21 12">
    <path fill="#b0b0b0" fill-rule="evenodd" d="M 10.29 11.14 C 5.79 11.14 1.94 7.09 0.99 6 C 1.94 4.91 5.79 0.86 10.29 0.86 C 14.78 0.86 18.63 4.91 19.58 6 C 18.63 7.09 14.78 11.14 10.29 11.14 L 10.29 11.14 Z M 20.48 5.73 C 20.29 5.5 15.87 0 10.29 0 C 4.7 0 0.28 5.5 0.09 5.73 C -0.03 5.89 -0.03 6.11 0.09 6.27 C 0.28 6.5 4.7 12 10.29 12 C 15.87 12 20.29 6.5 20.48 6.27 C 20.6 6.11 20.6 5.89 20.48 5.73 L 20.48 5.73 Z M 20.48 5.73" />
    <path fill="#b0b0b0" fill-rule="evenodd" d="M 7.72 6.25 C 7.72 4.86 8.86 3.72 10.25 3.72 C 11.64 3.72 12.78 4.86 12.78 6.25 C 12.78 7.64 11.64 8.78 10.25 8.78 C 8.86 8.78 7.72 7.64 7.72 6.25 Z M 10.25 3 C 8.46 3 7 4.46 7 6.25 C 7 8.04 8.46 9.5 10.25 9.5 C 12.04 9.5 13.5 8.04 13.5 6.25 C 13.5 4.46 12.04 3 10.25 3 L 10.25 3 Z M 10.25 3" />
</svg>